<svg width="190" height="37" viewBox="0 0 190 37" fill="none" xmlns="http://www.w3.org/2000/svg">
<path d="M5.3 12.9C6.1 11.8667 7 11.05 8 10.45C9 9.81667 10.3333 9.5 12 9.5C15.9 9.5 18.6333 10.95 20.2 13.85C21.1667 12.45 22.2667 11.3833 23.5 10.65C24.7333 9.88333 26.35 9.5 28.35 9.5C31.6167 9.5 34.0333 10.4833 35.6 12.45C37.2 14.4167 38 17.2 38 20.8V34.65C38 35.0167 37.8667 35.3333 37.6 35.6C37.3333 35.8667 37.0167 36 36.65 36H34.8C34.4333 36 34.1167 35.8667 33.85 35.6C33.5833 35.3333 33.45 35.0167 33.45 34.65V21.3C33.45 16.3 31.4833 13.8 27.55 13.8C25.75 13.8 24.3167 14.4 23.25 15.6C22.1833 16.8 21.65 18.5833 21.65 20.95V34.65C21.65 35.0167 21.5167 35.3333 21.25 35.6C20.9833 35.8667 20.6667 36 20.3 36H18.45C18.0833 36 17.7667 35.8667 17.5 35.6C17.2333 35.3333 17.1 35.0167 17.1 34.65V21.3C17.1 16.3 15.1333 13.8 11.2 13.8C9.4 13.8 7.96667 14.4 6.9 15.6C5.83333 16.8 5.3 18.5833 5.3 20.95V34.65C5.3 35.0167 5.16667 35.3333 4.9 35.6C4.63333 35.8667 4.31667 36 3.95 36H2.1C1.73333 36 1.41667 35.8667 1.15 35.6C0.883334 35.3333 0.75 35.0167 0.75 34.65V11.35C0.75 10.9833 0.883334 10.6667 1.15 10.4C1.41667 10.1333 1.73333 10 2.1 10H3.95C4.31667 10 4.63333 10.1333 4.9 10.4C5.16667 10.6667 5.3 10.9833 5.3 11.35V12.9ZM50.2824 4.7C50.2824 5.06667 50.1491 5.38333 49.8824 5.65C49.6158 5.91666 49.2991 6.05 48.9324 6.05H46.0824C45.7158 6.05 45.3991 5.91666 45.1324 5.65C44.8658 5.38333 44.7324 5.06667 44.7324 4.7V1.85C44.7324 1.48333 44.8658 1.16667 45.1324 0.899999C45.3991 0.633332 45.7158 0.499998 46.0824 0.499998H48.9324C49.2991 0.499998 49.6158 0.633332 49.8824 0.899999C50.1491 1.16667 50.2824 1.48333 50.2824 1.85V4.7ZM49.7824 34.65C49.7824 35.0167 49.6491 35.3333 49.3824 35.6C49.1158 35.8667 48.7991 36 48.4324 36H46.5824C46.2158 36 45.8991 35.8667 45.6324 35.6C45.3658 35.3333 45.2324 35.0167 45.2324 34.65V11.35C45.2324 10.9833 45.3658 10.6667 45.6324 10.4C45.8991 10.1333 46.2158 10 46.5824 10H48.4324C48.7991 10 49.1158 10.1333 49.3824 10.4C49.6491 10.6667 49.7824 10.9833 49.7824 11.35V34.65ZM80.393 34.65C80.393 35.0167 80.2596 35.3333 79.993 35.6C79.7263 35.8667 79.4096 36 79.043 36H77.193C76.8263 36 76.5096 35.8667 76.243 35.6C75.9763 35.3333 75.843 35.0167 75.843 34.65V21.45C75.843 18.95 75.2263 17.05 73.993 15.75C72.7596 14.45 71.043 13.8 68.843 13.8C66.6763 13.8 64.9596 14.45 63.693 15.75C62.4596 17.05 61.843 18.95 61.843 21.45V34.65C61.843 35.0167 61.7096 35.3333 61.443 35.6C61.1763 35.8667 60.8596 36 60.493 36H58.643C58.2763 36 57.9596 35.8667 57.693 35.6C57.4263 35.3333 57.293 35.0167 57.293 34.65V11.35C57.293 10.9833 57.4263 10.6667 57.693 10.4C57.9596 10.1333 58.2763 10 58.643 10H60.493C60.8596 10 61.1763 10.1333 61.443 10.4C61.7096 10.6667 61.843 10.9833 61.843 11.35V12.9C62.5763 11.9333 63.5763 11.1333 64.843 10.5C66.143 9.83333 67.7263 9.5 69.593 9.5C71.693 9.5 73.5596 9.95 75.193 10.85C76.8263 11.75 78.093 13.05 78.993 14.75C79.9263 16.4167 80.393 18.4 80.393 20.7V34.65ZM92.7141 4.7C92.7141 5.06667 92.5807 5.38333 92.3141 5.65C92.0474 5.91666 91.7307 6.05 91.3641 6.05H88.5141C88.1474 6.05 87.8307 5.91666 87.5641 5.65C87.2974 5.38333 87.1641 5.06667 87.1641 4.7V1.85C87.1641 1.48333 87.2974 1.16667 87.5641 0.899999C87.8307 0.633332 88.1474 0.499998 88.5141 0.499998H91.3641C91.7307 0.499998 92.0474 0.633332 92.3141 0.899999C92.5807 1.16667 92.7141 1.48333 92.7141 1.85V4.7ZM92.2141 34.65C92.2141 35.0167 92.0807 35.3333 91.8141 35.6C91.5474 35.8667 91.2307 36 90.8641 36H89.0141C88.6474 36 88.3307 35.8667 88.0641 35.6C87.7974 35.3333 87.6641 35.0167 87.6641 34.65V11.35C87.6641 10.9833 87.7974 10.6667 88.0641 10.4C88.3307 10.1333 88.6474 10 89.0141 10H90.8641C91.2307 10 91.5474 10.1333 91.8141 10.4C92.0807 10.6667 92.2141 10.9833 92.2141 11.35V34.65ZM104.275 12.9C105.075 11.8667 105.975 11.05 106.975 10.45C107.975 9.81667 109.308 9.5 110.975 9.5C114.875 9.5 117.608 10.95 119.175 13.85C120.141 12.45 121.241 11.3833 122.475 10.65C123.708 9.88333 125.325 9.5 127.325 9.5C130.591 9.5 133.008 10.4833 134.575 12.45C136.175 14.4167 136.975 17.2 136.975 20.8V34.65C136.975 35.0167 136.841 35.3333 136.575 35.6C136.308 35.8667 135.991 36 135.625 36H133.775C133.408 36 133.091 35.8667 132.825 35.6C132.558 35.3333 132.425 35.0167 132.425 34.65V21.3C132.425 16.3 130.458 13.8 126.525 13.8C124.725 13.8 123.291 14.4 122.225 15.6C121.158 16.8 120.625 18.5833 120.625 20.95V34.65C120.625 35.0167 120.491 35.3333 120.225 35.6C119.958 35.8667 119.641 36 119.275 36H117.425C117.058 36 116.741 35.8667 116.475 35.6C116.208 35.3333 116.075 35.0167 116.075 34.65V21.3C116.075 16.3 114.108 13.8 110.175 13.8C108.375 13.8 106.941 14.4 105.875 15.6C104.808 16.8 104.275 18.5833 104.275 20.95V34.65C104.275 35.0167 104.141 35.3333 103.875 35.6C103.608 35.8667 103.291 36 102.925 36H101.075C100.708 36 100.391 35.8667 100.125 35.6C99.8579 35.3333 99.7246 35.0167 99.7246 34.65V11.35C99.7246 10.9833 99.8579 10.6667 100.125 10.4C100.391 10.1333 100.708 10 101.075 10H102.925C103.291 10 103.608 10.1333 103.875 10.4C104.141 10.6667 104.275 10.9833 104.275 11.35V12.9ZM159.657 19.55V18.9C159.657 17.2667 159.107 16.0167 158.007 15.15C156.94 14.25 155.54 13.8 153.807 13.8C152.474 13.8 151.424 14.0333 150.657 14.5C149.924 14.9333 149.224 15.6 148.557 16.5C148.357 16.7667 148.14 16.95 147.907 17.05C147.674 17.15 147.357 17.2 146.957 17.2H145.457C145.09 17.2 144.757 17.0667 144.457 16.8C144.19 16.5333 144.074 16.2167 144.107 15.85C144.207 14.85 144.69 13.8667 145.557 12.9C146.457 11.9 147.64 11.0833 149.107 10.45C150.574 9.81667 152.14 9.5 153.807 9.5C156.907 9.5 159.407 10.3667 161.307 12.1C163.24 13.8333 164.207 16.2667 164.207 19.4V34.65C164.207 35.0167 164.074 35.3333 163.807 35.6C163.54 35.8667 163.224 36 162.857 36H161.007C160.64 36 160.324 35.8667 160.057 35.6C159.79 35.3333 159.657 35.0167 159.657 34.65V32.6C159.124 33.8 157.99 34.75 156.257 35.45C154.524 36.15 152.79 36.5 151.057 36.5C149.357 36.5 147.84 36.2 146.507 35.6C145.174 34.9667 144.14 34.1167 143.407 33.05C142.707 31.9833 142.357 30.7833 142.357 29.45C142.357 26.95 143.29 25 145.157 23.6C147.024 22.1667 149.507 21.2 152.607 20.7L159.657 19.55ZM159.657 23.55L153.757 24.5C151.59 24.8333 149.907 25.3833 148.707 26.15C147.507 26.8833 146.907 27.8167 146.907 28.95C146.907 29.7833 147.29 30.5333 148.057 31.2C148.824 31.8667 149.99 32.2 151.557 32.2C153.957 32.2 155.907 31.5167 157.407 30.15C158.907 28.7833 159.657 27 159.657 24.8V23.55ZM176.052 34.65C176.052 35.0167 175.919 35.3333 175.652 35.6C175.385 35.8667 175.069 36 174.702 36H172.852C172.485 36 172.169 35.8667 171.902 35.6C171.635 35.3333 171.502 35.0167 171.502 34.65V1.85C171.502 1.48333 171.635 1.16667 171.902 0.899999C172.169 0.633332 172.485 0.499998 172.852 0.499998H174.702C175.069 0.499998 175.385 0.633332 175.652 0.899999C175.919 1.16667 176.052 1.48333 176.052 1.85V34.65ZM187.663 29.95C188.029 29.95 188.346 30.0833 188.613 30.35C188.879 30.6167 189.013 30.9333 189.013 31.3V34.65C189.013 35.0167 188.879 35.3333 188.613 35.6C188.346 35.8667 188.029 36 187.663 36H184.313C183.946 36 183.629 35.8667 183.363 35.6C183.096 35.3333 182.963 35.0167 182.963 34.65V31.3C182.963 30.9333 183.096 30.6167 183.363 30.35C183.629 30.0833 183.946 29.95 184.313 29.95H187.663Z" fill="white"/>
</svg>
