<svg width="269" height="47" viewBox="0 0 269 47" fill="none" xmlns="http://www.w3.org/2000/svg">
<path d="M40.1172 46V25.1113C40.1172 22.0059 39.5117 19.7402 38.3008 18.3145C37.0898 16.8887 35.2344 16.1758 32.7344 16.1758C29.4727 16.1758 27.0605 17.0742 25.498 18.8711C23.9355 20.668 23.1543 23.4902 23.1543 27.3379V46H20.1953V24.2324C20.1953 18.8613 17.7344 16.1758 12.8125 16.1758C9.47266 16.1758 7.04102 17.1523 5.51758 19.1055C3.99414 21.0391 3.23242 24.1445 3.23242 28.4219V46H0.332031V14.1543H2.73438L3.34961 18.5195H3.52539C4.4043 16.9375 5.6543 15.7168 7.27539 14.8574C8.89648 13.9785 10.6836 13.5391 12.6367 13.5391C17.6562 13.5391 20.8789 15.4238 22.3047 19.1934H22.4219C23.457 17.377 24.8438 15.9805 26.582 15.0039C28.3398 14.0273 30.332 13.5391 32.5586 13.5391C36.0352 13.5391 38.6426 14.4668 40.3809 16.3223C42.1191 18.1777 42.9883 21.127 42.9883 25.1699V46H40.1172ZM67.0012 46H64.1008V14.1543H67.0012V46ZM63.6906 5.30664C63.6906 3.43164 64.3059 2.49414 65.5363 2.49414C66.1418 2.49414 66.6105 2.73828 66.9426 3.22656C67.2941 3.71484 67.4699 4.4082 67.4699 5.30664C67.4699 6.18555 67.2941 6.87891 66.9426 7.38672C66.6105 7.89453 66.1418 8.14844 65.5363 8.14844C64.3059 8.14844 63.6906 7.20117 63.6906 5.30664ZM110.702 46V25.3457C110.702 22.1426 110.028 19.8184 108.68 18.373C107.332 16.9082 105.243 16.1758 102.411 16.1758C98.602 16.1758 95.809 17.1426 94.0316 19.0762C92.2738 20.9902 91.3949 24.1055 91.3949 28.4219V46H88.4945V14.1543H90.9555L91.5121 18.5195H91.6879C93.7582 15.1992 97.4398 13.5391 102.733 13.5391C109.959 13.5391 113.573 17.416 113.573 25.1699V46H110.702ZM137.586 46H134.685V14.1543H137.586V46ZM134.275 5.30664C134.275 3.43164 134.89 2.49414 136.121 2.49414C136.726 2.49414 137.195 2.73828 137.527 3.22656C137.879 3.71484 138.054 4.4082 138.054 5.30664C138.054 6.18555 137.879 6.87891 137.527 7.38672C137.195 7.89453 136.726 8.14844 136.121 8.14844C134.89 8.14844 134.275 7.20117 134.275 5.30664ZM198.864 46V25.1113C198.864 22.0059 198.259 19.7402 197.048 18.3145C195.837 16.8887 193.981 16.1758 191.481 16.1758C188.22 16.1758 185.807 17.0742 184.245 18.8711C182.682 20.668 181.901 23.4902 181.901 27.3379V46H178.942V24.2324C178.942 18.8613 176.481 16.1758 171.559 16.1758C168.22 16.1758 165.788 17.1523 164.264 19.1055C162.741 21.0391 161.979 24.1445 161.979 28.4219V46H159.079V14.1543H161.481L162.096 18.5195H162.272C163.151 16.9375 164.401 15.7168 166.022 14.8574C167.643 13.9785 169.43 13.5391 171.384 13.5391C176.403 13.5391 179.626 15.4238 181.052 19.1934H181.169C182.204 17.377 183.591 15.9805 185.329 15.0039C187.087 14.0273 189.079 13.5391 191.305 13.5391C194.782 13.5391 197.389 14.4668 199.128 16.3223C200.866 18.1777 201.735 21.127 201.735 25.1699V46H198.864ZM242.184 46L241.451 40.9609H241.217C239.615 43.0117 237.965 44.4668 236.266 45.3262C234.586 46.166 232.594 46.5859 230.289 46.5859C227.164 46.5859 224.732 45.7852 222.994 44.1836C221.256 42.582 220.387 40.3652 220.387 37.5332C220.387 34.4277 221.676 32.0156 224.254 30.2969C226.852 28.5781 230.602 27.6699 235.504 27.5723L241.568 27.3965V25.2871C241.568 22.2598 240.953 19.9746 239.723 18.4316C238.492 16.8887 236.51 16.1172 233.775 16.1172C230.826 16.1172 227.77 16.9375 224.605 18.5781L223.521 16.0586C227.018 14.418 230.475 13.5977 233.893 13.5977C237.389 13.5977 239.996 14.5059 241.715 16.3223C243.453 18.1387 244.322 20.9707 244.322 24.8184V46H242.184ZM230.465 43.9492C233.863 43.9492 236.539 42.9824 238.492 41.0488C240.465 39.0957 241.451 36.3906 241.451 32.9336V29.7988L235.885 30.0332C231.412 30.248 228.219 30.9512 226.305 32.1426C224.41 33.3145 223.463 35.1504 223.463 37.6504C223.463 39.6426 224.068 41.1953 225.279 42.3086C226.51 43.4023 228.238 43.9492 230.465 43.9492ZM268.364 46H265.464V0.414062H268.364V46Z" fill="white"/>
</svg>
